<svg width="34" height="34" viewBox="0 0 34 34" fill="none" xmlns="http://www.w3.org/2000/svg">
<path d="M19.8199 16.9999L32.4199 4.41988C32.7965 4.04328 33.0081 3.53249 33.0081 2.99988C33.0081 2.46728 32.7965 1.95649 32.4199 1.57988C32.0433 1.20328 31.5325 0.991699 30.9999 0.991699C30.4673 0.991699 29.9565 1.20328 29.5799 1.57988L16.9999 14.1799L4.41988 1.57988C4.04327 1.20328 3.53248 0.9917 2.99988 0.9917C2.46727 0.9917 1.95649 1.20328 1.57988 1.57988C1.20327 1.95649 0.991695 2.46728 0.991695 2.99988C0.991695 3.53249 1.20327 4.04328 1.57988 4.41988L14.1799 16.9999L1.57988 29.5799C1.39242 29.7658 1.24363 29.987 1.1421 30.2307C1.04056 30.4744 0.988281 30.7359 0.988281 30.9999C0.988281 31.2639 1.04056 31.5253 1.1421 31.769C1.24363 32.0128 1.39242 32.234 1.57988 32.4199C1.7658 32.6073 1.98701 32.7561 2.23072 32.8577C2.47444 32.9592 2.73585 33.0115 2.99988 33.0115C3.2639 33.0115 3.52531 32.9592 3.76903 32.8577C4.01275 32.7561 4.23395 32.6073 4.41988 32.4199L16.9999 19.8199L29.5799 32.4199C29.7658 32.6073 29.987 32.7561 30.2307 32.8577C30.4744 32.9592 30.7359 33.0115 30.9999 33.0115C31.2639 33.0115 31.5253 32.9592 31.769 32.8577C32.0128 32.7561 32.2339 32.6073 32.4199 32.4199C32.6073 32.234 32.7561 32.0128 32.8577 31.769C32.9592 31.5253 33.0115 31.2639 33.0115 30.9999C33.0115 30.7359 32.9592 30.4744 32.8577 30.2307C32.7561 29.987 32.6073 29.7658 32.4199 29.5799L19.8199 16.9999Z" fill="white"/>
</svg>
