<svg width="796" height="243" viewBox="0 0 796 243" fill="none" xmlns="http://www.w3.org/2000/svg">
<path d="M66.12 72.8L90.96 116H59.04L42.96 85.64H35.04V116H6.72V32H35.04V63.32H43.68L61.56 32H91.08L66.12 72.8ZM96.9459 50.36H123.946V80L146.626 50.36H171.586V116H144.586V86.24L122.026 116H96.9459V50.36ZM228.051 49.16C233.811 49.16 239.091 50.56 243.891 53.36C248.771 56.08 252.611 60.04 255.411 65.24C258.291 70.44 259.731 76.44 259.731 83.24C259.731 90.04 258.291 96.04 255.411 101.24C252.611 106.36 248.771 110.32 243.891 113.12C239.091 115.84 233.811 117.2 228.051 117.2C220.771 117.2 215.211 115.32 211.371 111.56V139.28H184.251V50.36H210.051V55.76C213.971 51.36 219.971 49.16 228.051 49.16ZM221.571 96.08C224.691 96.08 227.251 94.96 229.251 92.72C231.251 90.48 232.251 87.32 232.251 83.24C232.251 79.16 231.251 76 229.251 73.76C227.251 71.44 224.691 70.28 221.571 70.28C218.451 70.28 215.891 71.44 213.891 73.76C211.891 76 210.891 79.16 210.891 83.24C210.891 87.32 211.891 90.48 213.891 92.72C215.891 94.96 218.451 96.08 221.571 96.08ZM268.508 50.36H295.508V80L318.188 50.36H343.148V116H316.148V86.24L293.588 116H268.508V50.36ZM426.613 50.36V116H399.493V71.48H387.133L386.773 80C386.453 88.48 385.573 95.44 384.133 100.88C382.693 106.32 380.293 110.52 376.933 113.48C373.653 116.36 369.133 117.8 363.373 117.8C359.773 117.8 355.573 117.2 350.773 116L351.853 94.04C353.133 94.2 354.053 94.28 354.613 94.28C357.893 94.28 360.053 93.12 361.093 90.8C362.133 88.4 362.773 84.44 363.013 78.92L363.973 50.36H426.613ZM510.168 50.36V116H483.048V71.48H470.688L470.328 80C470.008 88.48 469.128 95.44 467.688 100.88C466.248 106.32 463.848 110.52 460.488 113.48C457.208 116.36 452.688 117.8 446.928 117.8C443.328 117.8 439.128 117.2 434.328 116L435.408 94.04C436.688 94.2 437.608 94.28 438.168 94.28C441.448 94.28 443.608 93.12 444.648 90.8C445.688 88.4 446.328 84.44 446.568 78.92L447.528 50.36H510.168Z" fill="#FEEEC4"/>
<path d="M345.44 213L345.2 174.72L326.96 205.44H314.48L296.24 176.04V213H270.44V129H293.72L321.08 173.76L347.72 129H371L371.24 213H345.44ZM384.907 147.36H411.907V177L434.587 147.36H459.547V213H432.547V183.24L409.987 213H384.907V147.36ZM543.012 147.36V213H515.892V168.48H503.532L503.172 177C502.852 185.48 501.972 192.44 500.532 197.88C499.092 203.32 496.692 207.52 493.332 210.48C490.052 213.36 485.532 214.8 479.772 214.8C476.172 214.8 471.972 214.2 467.172 213L468.252 191.04C469.532 191.2 470.452 191.28 471.012 191.28C474.292 191.28 476.452 190.12 477.492 187.8C478.532 185.4 479.172 181.44 479.412 175.92L480.372 147.36H543.012ZM626.566 147.36V213H599.446V168.48H587.086L586.726 177C586.406 185.48 585.526 192.44 584.086 197.88C582.646 203.32 580.246 207.52 576.886 210.48C573.606 213.36 569.086 214.8 563.326 214.8C559.726 214.8 555.526 214.2 550.726 213L551.806 191.04C553.086 191.2 554.006 191.28 554.566 191.28C557.846 191.28 560.006 190.12 561.046 187.8C562.086 185.4 562.726 181.44 562.966 175.92L563.926 147.36H626.566ZM708.321 180.12C708.321 180.52 708.201 182.64 707.961 186.48H662.361C663.321 188.96 664.921 190.88 667.161 192.24C669.401 193.52 672.201 194.16 675.561 194.16C678.441 194.16 680.841 193.8 682.761 193.08C684.761 192.36 686.921 191.12 689.241 189.36L703.401 203.64C697.001 210.68 687.441 214.2 674.721 214.2C666.801 214.2 659.841 212.76 653.841 209.88C647.841 206.92 643.201 202.84 639.921 197.64C636.641 192.44 635.001 186.6 635.001 180.12C635.001 173.56 636.601 167.72 639.801 162.6C643.081 157.4 647.521 153.36 653.121 150.48C658.801 147.6 665.161 146.16 672.201 146.16C678.841 146.16 684.881 147.48 690.321 150.12C695.841 152.76 700.201 156.64 703.401 161.76C706.681 166.88 708.321 173 708.321 180.12ZM672.441 164.64C669.641 164.64 667.321 165.4 665.481 166.92C663.641 168.44 662.441 170.6 661.881 173.4H683.001C682.441 170.68 681.241 168.56 679.401 167.04C677.561 165.44 675.241 164.64 672.441 164.64ZM761.871 146.16C767.631 146.16 772.911 147.56 777.711 150.36C782.591 153.08 786.431 157.04 789.231 162.24C792.111 167.44 793.551 173.44 793.551 180.24C793.551 187.04 792.111 193.04 789.231 198.24C786.431 203.36 782.591 207.32 777.711 210.12C772.911 212.84 767.631 214.2 761.871 214.2C754.591 214.2 749.031 212.32 745.191 208.56V236.28H718.071V147.36H743.871V152.76C747.791 148.36 753.791 146.16 761.871 146.16ZM755.391 193.08C758.511 193.08 761.071 191.96 763.071 189.72C765.071 187.48 766.071 184.32 766.071 180.24C766.071 176.16 765.071 173 763.071 170.76C761.071 168.44 758.511 167.28 755.391 167.28C752.271 167.28 749.711 168.44 747.711 170.76C745.711 173 744.711 176.16 744.711 180.24C744.711 184.32 745.711 187.48 747.711 189.72C749.711 191.96 752.271 193.08 755.391 193.08Z" fill="#FEEEC4"/>
</svg>
